<svg width="220" height="211" viewBox="0 0 220 211" fill="none" xmlns="http://www.w3.org/2000/svg">
<g clip-path="url(#clip0_26_3)">
<path d="M106.333 12.8435C123.75 8.25652 138.417 20.1826 153.083 28.4391C171.417 38.5304 195.25 39.4478 205.333 57.7957C215.417 77.0609 199.833 98.1609 193.417 117.426C186.083 139.443 197.083 166.965 178.75 181.643C160.417 197.239 132.917 184.396 110.917 187.148C87.0833 190.817 61.4166 204.578 43.0833 188.065C25.6666 172.47 33.9166 144.948 24.75 123.848C15.5833 102.748 -1.83336 84.4 9.16664 64.2174C19.25 44.9522 45.8333 44.0348 63.25 33.9435C77.9166 25.687 88.9166 17.4304 106.333 12.8435Z" fill="#FFF2D6" stroke="white" stroke-width="13" stroke-linejoin="round"/>
<path d="M75.1667 99.0782C82.7606 99.0782 88.9167 90.0422 88.9167 78.8956C88.9167 67.7491 82.7606 58.713 75.1667 58.713C67.5728 58.713 61.4167 67.7491 61.4167 78.8956C61.4167 90.0422 67.5728 99.0782 75.1667 99.0782Z" fill="white"/>
<path d="M140.25 99.0782C147.844 99.0782 154 90.0422 154 78.8956C154 67.7491 147.844 58.713 140.25 58.713C132.656 58.713 126.5 67.7491 126.5 78.8956C126.5 90.0422 132.656 99.0782 140.25 99.0782Z" fill="white"/>
<path d="M80.6667 86.2348C83.7043 86.2348 86.1667 83.7704 86.1667 80.7304C86.1667 77.6905 83.7043 75.2261 80.6667 75.2261C77.6291 75.2261 75.1667 77.6905 75.1667 80.7304C75.1667 83.7704 77.6291 86.2348 80.6667 86.2348Z" fill="#060609"/>
<path d="M145.75 86.2348C148.788 86.2348 151.25 83.7704 151.25 80.7304C151.25 77.6905 148.788 75.2261 145.75 75.2261C142.712 75.2261 140.25 77.6905 140.25 80.7304C140.25 83.7704 142.712 86.2348 145.75 86.2348Z" fill="#060609"/>
<path d="M88 115.591H123.75" stroke="#060609" stroke-width="8" stroke-linecap="round"/>
<path d="M55.9167 117.426C59.4605 117.426 62.3333 114.551 62.3333 111.004C62.3333 107.458 59.4605 104.583 55.9167 104.583C52.3728 104.583 49.5 107.458 49.5 111.004C49.5 114.551 52.3728 117.426 55.9167 117.426Z" fill="#FFB6D8"/>
<path d="M156.75 117.426C160.294 117.426 163.167 114.551 163.167 111.004C163.167 107.458 160.294 104.583 156.75 104.583C153.206 104.583 150.333 107.458 150.333 111.004C150.333 114.551 153.206 117.426 156.75 117.426Z" fill="#FFB6D8"/>
</g>
<defs>
<clipPath id="clip0_26_3">
<rect width="220" height="211" fill="white"/>
</clipPath>
</defs>
</svg>
