<svg width="220" height="211" viewBox="0 0 220 211" fill="none" xmlns="http://www.w3.org/2000/svg">
<g clip-path="url(#clip0_24_3)">
<path d="M108.167 12.8435C127.417 1.83477 147.583 15.5956 163.167 29.3565C178.75 43.1174 201.667 53.2087 206.25 75.2261C210.833 97.2435 192.5 115.591 186.083 136.691C180.583 158.709 182.417 183.478 161.333 193.57C140.25 203.661 119.167 189.9 97.1667 193.57C75.1667 197.239 49.5 200.909 33.9167 184.396C18.3333 167.883 28.4167 141.278 20.1667 121.096C11.9167 100.913 -4.58333 81.6478 6.41667 62.3826C17.4167 43.1174 43.0833 41.2826 61.4167 32.1087C77 24.7696 90.75 22.0174 108.167 12.8435Z" fill="#FFF2D6" stroke="white" stroke-width="13" stroke-linejoin="round"/>
<path d="M65.0833 61.4652C74.25 53.2087 83.4167 54.1261 90.75 60.5478" stroke="#060609" stroke-width="7" stroke-linecap="round"/>
<path d="M125.583 60.5478C134.75 54.1261 144.833 55.0435 152.167 62.3826" stroke="#060609" stroke-width="7" stroke-linecap="round"/>
<path d="M77 103.665C85.6064 103.665 92.5833 93.8077 92.5833 81.6478C92.5833 69.488 85.6064 59.6304 77 59.6304C68.3936 59.6304 61.4167 69.488 61.4167 81.6478C61.4167 93.8077 68.3936 103.665 77 103.665Z" fill="white"/>
<path d="M137.5 103.665C146.106 103.665 153.083 93.8077 153.083 81.6478C153.083 69.488 146.106 59.6304 137.5 59.6304C128.894 59.6304 121.917 69.488 121.917 81.6478C121.917 93.8077 128.894 103.665 137.5 103.665Z" fill="white"/>
<path d="M80.6667 89.9043C83.7042 89.9043 86.1667 87.4399 86.1667 84.4C86.1667 81.36 83.7042 78.8956 80.6667 78.8956C77.6291 78.8956 75.1667 81.36 75.1667 84.4C75.1667 87.4399 77.6291 89.9043 80.6667 89.9043Z" fill="#060609"/>
<path d="M141.167 89.9043C144.204 89.9043 146.667 87.4399 146.667 84.4C146.667 81.36 144.204 78.8956 141.167 78.8956C138.129 78.8956 135.667 81.36 135.667 84.4C135.667 87.4399 138.129 89.9043 141.167 89.9043Z" fill="#060609"/>
<path d="M86.1667 121.096C99 111.922 115.5 111.922 128.333 121.096" stroke="#060609" stroke-width="8" stroke-linecap="round"/>
<path d="M172.333 63.3C184.25 75.2261 181.5 90.8217 167.75 101.83" stroke="#7FD8FF" stroke-width="8" stroke-linecap="round"/>
</g>
<defs>
<clipPath id="clip0_24_3">
<rect width="220" height="211" fill="white"/>
</clipPath>
</defs>
</svg>
