<svg width="220" height="211" viewBox="0 0 220 211" fill="none" xmlns="http://www.w3.org/2000/svg">
<g clip-path="url(#clip0_23_3)">
<path d="M108.167 11.9261C126.5 7.33914 143.917 19.2652 157.667 31.1913C174.167 44.9522 200.75 52.2913 205.333 73.3913C209.917 96.3261 187.917 112.839 183.333 134.857C178.75 156.874 187.917 180.726 168.667 191.735C148.5 203.661 126.5 188.065 105.417 188.065C83.4167 188.065 59.5833 203.661 41.25 190.817C22.9167 177.974 28.4167 151.37 19.25 131.187C10.0833 111.004 -3.66667 92.6565 5.5 73.3913C14.6667 54.1261 38.5 48.6217 55 36.6957C70.5833 24.7696 88 16.5131 108.167 11.9261Z" fill="#FFF2D6" stroke="white" stroke-width="13" stroke-linejoin="round"/>
<path d="M76.0833 99.0783C85.196 99.0783 92.5833 89.2207 92.5833 77.0609C92.5833 64.901 85.196 55.0435 76.0833 55.0435C66.9706 55.0435 59.5833 64.901 59.5833 77.0609C59.5833 89.2207 66.9706 99.0783 76.0833 99.0783Z" fill="white"/>
<path d="M136.583 99.0783C145.696 99.0783 153.083 89.2207 153.083 77.0609C153.083 64.901 145.696 55.0435 136.583 55.0435C127.471 55.0435 120.083 64.901 120.083 77.0609C120.083 89.2207 127.471 99.0783 136.583 99.0783Z" fill="white"/>
<path d="M83.4167 88.987C86.9605 88.987 89.8333 86.1119 89.8333 82.5652C89.8333 79.0186 86.9605 76.1435 83.4167 76.1435C79.8728 76.1435 77 79.0186 77 82.5652C77 86.1119 79.8728 88.987 83.4167 88.987Z" fill="#060609"/>
<path d="M143 88.987C146.544 88.987 149.417 86.1119 149.417 82.5652C149.417 79.0186 146.544 76.1435 143 76.1435C139.456 76.1435 136.583 79.0186 136.583 82.5652C136.583 86.1119 139.456 88.987 143 88.987Z" fill="#060609"/>
<path d="M88.9167 115.591H121.917" stroke="#060609" stroke-width="8" stroke-linecap="round"/>
</g>
<defs>
<clipPath id="clip0_23_3">
<rect width="220" height="211" fill="white"/>
</clipPath>
</defs>
</svg>
