<svg width="220" height="211" viewBox="0 0 220 211" fill="none" xmlns="http://www.w3.org/2000/svg">
<path d="M111.833 14.6783C131.083 2.75218 149.417 19.2652 161.333 35.7783C176 56.8783 201.667 61.4652 205.333 86.2348C209 111.004 182.417 123.848 180.583 148.617C177.833 174.304 159.5 193.57 134.75 188.065C115.5 184.396 103.583 196.322 83.4167 192.652C60.5 188.983 42.1667 172.47 40.3334 148.617C38.5 127.517 13.75 116.509 16.5 94.4913C18.3334 73.3913 39.4167 59.6304 55.9167 46.787C71.5 33.9435 92.5834 26.6044 111.833 14.6783Z" fill="#FF9ACC" stroke="white" stroke-width="13" stroke-linejoin="round"/>
<path d="M64.1667 62.3826L88 56.8783" stroke="#060609" stroke-width="8" stroke-linecap="round"/>
<path d="M126.5 56.8783L151.25 64.2174" stroke="#060609" stroke-width="8" stroke-linecap="round"/>
<path d="M77 102.748C85.6065 102.748 92.5834 92.8903 92.5834 80.7304C92.5834 68.5706 85.6065 58.713 77 58.713C68.3936 58.713 61.4167 68.5706 61.4167 80.7304C61.4167 92.8903 68.3936 102.748 77 102.748Z" fill="white"/>
<path d="M137.5 102.748C146.106 102.748 153.083 92.8903 153.083 80.7304C153.083 68.5706 146.106 58.713 137.5 58.713C128.894 58.713 121.917 68.5706 121.917 80.7304C121.917 92.8903 128.894 102.748 137.5 102.748Z" fill="white"/>
<path d="M78.8333 91.7391C81.8709 91.7391 84.3333 89.2748 84.3333 86.2348C84.3333 83.1948 81.8709 80.7304 78.8333 80.7304C75.7957 80.7304 73.3333 83.1948 73.3333 86.2348C73.3333 89.2748 75.7957 91.7391 78.8333 91.7391Z" fill="#060609"/>
<path d="M139.333 91.7391C142.371 91.7391 144.833 89.2748 144.833 86.2348C144.833 83.1948 142.371 80.7304 139.333 80.7304C136.296 80.7304 133.833 83.1948 133.833 86.2348C133.833 89.2748 136.296 91.7391 139.333 91.7391Z" fill="#060609"/>
<path d="M83.4167 122.013C95.3334 108.252 116.417 108.252 128.333 122.013" stroke="#060609" stroke-width="8" stroke-linecap="round"/>
<path d="M165.917 55.9609C177.833 69.7217 176 84.4 163.167 95.4087" stroke="white" stroke-width="7" stroke-linecap="round"/>
</svg>
