<svg width="220" height="211" viewBox="0 0 220 211" fill="none" xmlns="http://www.w3.org/2000/svg">
<g clip-path="url(#clip0_26_15)">
<path d="M109.083 15.5957C128.333 8.25654 144.833 22.0174 161.333 30.2739C182.417 40.3652 206.25 51.3739 209.917 75.2261C213.583 99.0783 187 113.757 182.417 137.609C178.75 159.626 186.083 184.396 165.917 195.404C145.75 206.413 121.917 191.735 100.833 189.9C79.75 188.065 53.1667 200.909 38.5 184.396C23.8334 167.883 33 143.113 22.9167 122.93C11.9167 101.83 -4.5833 82.5652 7.33336 62.3826C19.25 43.1174 46.75 44.0348 64.1667 33.9435C80.6667 23.8522 90.75 22.0174 109.083 15.5957Z" fill="#FFF2D6" stroke="white" stroke-width="13" stroke-linejoin="round"/>
<path d="M66 72.4739C74.25 66.0522 84.3333 66.0522 92.5833 72.4739" stroke="#060609" stroke-width="7" stroke-linecap="round"/>
<path d="M124.667 72.4739C133.833 66.0522 144.833 66.0522 153.083 72.4739" stroke="#060609" stroke-width="7" stroke-linecap="round"/>
<path d="M81.5833 111.922C94.4166 127.517 118.25 127.517 131.083 111.922" stroke="#060609" stroke-width="8" stroke-linecap="round"/>
<path d="M58.6667 96.3261C64.1667 101.83 70.5834 101.83 76.0834 96.3261" stroke="#060609" stroke-width="6" stroke-linecap="round"/>
<path d="M138.417 96.3261C143.917 101.83 150.333 101.83 155.833 96.3261" stroke="#060609" stroke-width="6" stroke-linecap="round"/>
</g>
<defs>
<clipPath id="clip0_26_15">
<rect width="220" height="211" fill="white"/>
</clipPath>
</defs>
</svg>
