<svg width="220" height="211" viewBox="0 0 220 211" fill="none" xmlns="http://www.w3.org/2000/svg">
<g clip-path="url(#clip0_23_13)">
<path d="M104.5 9.1739C124.667 0.917377 144.833 17.4304 162.25 27.5217C181.5 39.4478 206.25 45.8696 212.667 66.9696C220 90.8217 197.083 108.252 189.75 131.187C183.333 154.122 191.583 180.726 170.5 193.57C150.333 206.413 125.583 190.817 102.667 189.9C79.75 188.983 50.4167 200.909 34.8333 182.561C20.1667 165.13 30.25 138.526 20.1667 118.343C10.0833 97.2435 -4.58333 77.0609 9.16667 57.7956C22.9167 38.5304 50.4167 39.4478 69.6667 29.3565C82.5 22.0174 88.9167 15.5956 104.5 9.1739Z" fill="#00BB6B" stroke="white" stroke-width="13" stroke-linejoin="round"/>
<path d="M62.3333 60.5478C70.5833 52.2913 80.6666 52.2913 89.8333 58.713" stroke="#060609" stroke-width="7" stroke-linecap="round"/>
<path d="M124.667 58.713C134.75 52.2913 144.833 53.2087 152.167 61.4652" stroke="#060609" stroke-width="7" stroke-linecap="round"/>
<path d="M77 100.913C86.1127 100.913 93.5 91.4663 93.5 79.813C93.5 68.1598 86.1127 58.713 77 58.713C67.8873 58.713 60.5 68.1598 60.5 79.813C60.5 91.4663 67.8873 100.913 77 100.913Z" fill="white"/>
<path d="M137.5 100.913C146.613 100.913 154 91.4663 154 79.813C154 68.1598 146.613 58.713 137.5 58.713C128.387 58.713 121 68.1598 121 79.813C121 91.4663 128.387 100.913 137.5 100.913Z" fill="white"/>
<path d="M82.5 87.1522C86.0438 87.1522 88.9166 84.2771 88.9166 80.7304C88.9166 77.1838 86.0438 74.3087 82.5 74.3087C78.9562 74.3087 76.0833 77.1838 76.0833 80.7304C76.0833 84.2771 78.9562 87.1522 82.5 87.1522Z" fill="#060609"/>
<path d="M143 87.1522C146.544 87.1522 149.417 84.2771 149.417 80.7304C149.417 77.1838 146.544 74.3087 143 74.3087C139.456 74.3087 136.583 77.1838 136.583 80.7304C136.583 84.2771 139.456 87.1522 143 87.1522Z" fill="#060609"/>
<path d="M79.75 111.922C92.5833 131.187 119.167 131.187 132 111.922" stroke="#060609" stroke-width="8" stroke-linecap="round"/>
</g>
<defs>
<clipPath id="clip0_23_13">
<rect width="220" height="211" fill="white"/>
</clipPath>
</defs>
</svg>
